<svg xmlns="http://www.w3.org/2000/svg" xmlns:xlink="http://www.w3.org/1999/xlink" viewBox="0 0 400 400"><defs><style>.cls-1{fill:url(#Degradado_sin_nombre_6);}.cls-2{fill:#ffffe4;}</style><linearGradient id="Degradado_sin_nombre_6" x1="27.27" y1="296.57" x2="376.47" y2="101.33" gradientUnits="userSpaceOnUse"><stop offset="0" stop-color="#fa2678"/><stop offset="0.22" stop-color="#fa2a7a"/><stop offset="0.42" stop-color="#fa3481"/><stop offset="0.61" stop-color="#fb468c"/><stop offset="0.8" stop-color="#fb609c"/><stop offset="0.97" stop-color="#fc80b1"/><stop offset="1" stop-color="#fc86b4"/></linearGradient></defs><g id="Capa_2" data-name="Capa 2"><g id="Capa_1-2" data-name="Capa 1"><circle class="cls-1" cx="200" cy="200" r="200"/><path class="cls-2" d="M280.13,122H119.87A44,44,0,0,0,76,165.87v70.26A44,44,0,0,0,119.87,280h57.75L155,336l68.25-56h56.88A44,44,0,0,0,324,236.13V165.87A44,44,0,0,0,280.13,122ZM200.5,184A17.5,17.5,0,1,1,183,201.5,17.51,17.51,0,0,1,200.5,184Zm-50,35A17.5,17.5,0,1,1,168,201.5,17.51,17.51,0,0,1,150.5,219Zm100,0A17.5,17.5,0,1,1,268,201.5,17.51,17.51,0,0,1,250.5,219Z"/></g></g></svg>